<svg width="500" height="476" viewBox="0 0 500 476" fill="none" xmlns="http://www.w3.org/2000/svg">
<g clip-path="url(#clip0)">
<path d="M500 90.4618C475.205 158.856 398.48 194.71 330.135 169.866C261.74 145.07 225.887 68.3457 250.731 0C333.837 30.1539 416.943 60.3079 500 90.4618Z" fill="#D5E0EA"/>
<path d="M397.749 167.235C396.921 164.799 395.996 162.412 395.07 160.025C388.591 143.463 379.92 127.825 369.3 113.455C352.835 91.1438 332.375 72.6325 308.505 58.5541C277.134 40.0428 241.183 30.2513 204.599 30.2513C198.558 30.2513 192.518 30.4949 186.574 31.0308C184.139 31.2256 181.947 31.4692 179.852 31.7128C146.97 35.6586 115.208 47.7884 87.9287 66.7381C69.3199 79.696 53.0495 95.528 39.6044 113.844C21.5316 138.445 9.01208 167.284 3.45869 197.145C1.16913 209.519 0 222.184 0 234.85C0 254.53 2.7767 273.967 8.28137 292.625C16.6602 321.22 31.6154 348.159 51.4906 370.567C51.7829 370.908 52.0752 371.2 52.3675 371.541C55.2903 374.756 58.2619 377.923 61.2822 380.846C75.6528 394.973 91.9719 406.859 109.801 416.163C109.947 416.261 110.094 416.261 110.24 416.261C110.581 416.261 110.922 416.066 111.117 415.725C111.36 415.238 111.165 414.653 110.727 414.41C93.0924 405.154 76.9193 393.414 62.6949 379.384C59.6746 376.461 56.703 373.344 53.8289 370.129C53.7802 370.031 53.6828 369.982 53.6341 369.885C53.3905 369.641 53.1956 369.398 53.0008 369.154C33.3203 346.989 18.5113 320.294 10.1812 291.991C4.72525 273.578 1.94856 254.335 1.94856 234.85C1.94856 222.33 3.11769 209.762 5.35853 197.535C10.8632 167.917 23.2366 139.371 41.1146 115.014C54.4135 96.892 70.5378 81.2061 89.0004 68.3456C115.988 49.5908 147.457 37.5584 180.047 33.6613C182.141 33.4177 184.334 33.1742 186.721 32.9793C192.615 32.4435 198.607 32.1999 204.599 32.1999C240.89 32.1999 276.452 41.894 307.531 60.2591C331.157 74.24 351.422 92.5078 367.742 114.624C378.264 128.848 386.837 144.388 393.268 160.756C394.193 163.094 395.07 165.481 395.898 167.868C403.449 189.351 407.249 211.906 407.249 234.85C407.249 250.974 405.349 267.001 401.598 282.492C398.967 293.453 395.362 304.316 390.881 314.692C390.735 315.082 390.54 315.52 390.345 315.91C388.348 320.538 386.107 325.166 383.72 329.647C373.977 348.012 361.506 364.721 346.6 379.336C331.693 393.95 314.741 406.177 296.23 415.579C295.742 415.822 295.548 416.407 295.791 416.894C295.986 417.235 296.327 417.43 296.668 417.43C296.814 417.43 296.96 417.381 297.106 417.332C315.813 407.833 332.96 395.509 347.964 380.748C362.968 365.988 375.585 349.084 385.425 330.573C388.055 325.604 390.491 320.538 392.634 315.471C397.116 304.998 400.77 294.037 403.449 282.931C407.249 267.245 409.148 251.072 409.148 234.801C409.197 211.662 405.349 188.913 397.749 167.235Z" fill="#6F0000"/>
<path d="M384.597 331.109C384.256 331.109 383.915 330.914 383.72 330.622C379.823 323.558 377.436 314.838 374.951 305.534C372.515 296.473 369.982 287.12 365.842 278.936C361.214 269.778 355.125 263.396 347.233 259.402C342.118 256.82 337.734 255.212 331.888 255.212C331.839 255.212 331.791 255.212 331.791 255.212C314.059 255.212 292.868 265.832 272.652 277.28C267.683 280.105 262.665 283.028 257.843 285.854C251.802 289.41 245.518 293.063 239.526 296.376C227.543 303.05 213.611 310.162 201.627 312.208C189.302 314.303 180.631 310.795 175.078 301.491C164.215 283.272 161.779 265.832 168.16 251.072C177.026 230.417 202.065 215.413 242.498 206.352C248.149 205.086 254.141 203.965 260.279 202.942C265.004 202.163 269.973 201.432 275.039 200.799C305.777 196.951 329.501 185.357 345.479 166.261C357.171 152.28 364.624 134.645 367.595 113.845C367.693 113.309 368.18 112.919 368.716 113.016C369.252 113.114 369.641 113.601 369.544 114.137C366.524 135.327 358.973 153.303 346.989 167.527C330.67 186.964 306.557 198.85 275.282 202.748C270.265 203.381 265.296 204.063 260.62 204.842C254.482 205.865 248.538 206.986 242.936 208.252C222.282 212.88 205.524 219.164 193.151 226.91C181.849 233.973 174.055 242.401 169.963 251.851C163.874 266.027 166.212 282.833 176.783 300.516C187.402 318.297 209.178 311.087 238.601 294.719C244.544 291.407 250.536 287.9 256.869 284.197C261.74 281.372 266.757 278.4 271.726 275.624C292.186 264.03 313.62 253.264 331.839 253.264C331.888 253.264 331.937 253.264 331.937 253.264C338.172 253.264 342.897 255.018 348.159 257.648C356.44 261.789 362.773 268.463 367.644 278.011C371.882 286.389 374.415 295.84 376.9 304.998C379.384 314.156 381.722 322.779 385.522 329.647C385.766 330.135 385.62 330.719 385.132 330.963C384.938 331.109 384.743 331.109 384.597 331.109Z" fill="#6F0000"/>
<path d="M9.20662 293.355C9.06048 293.355 8.86562 293.307 8.71948 293.209C8.23234 292.917 8.0862 292.332 8.37848 291.894C19.8263 271.921 34.7814 253.897 42.6731 244.934C46.9599 240.062 49.7366 237.188 49.7366 237.188C50.1263 236.799 50.7109 236.799 51.1006 237.188C51.4903 237.578 51.4903 238.163 51.1006 238.552C51.0519 238.601 48.3239 241.426 44.0858 246.249C36.2429 255.164 21.4338 273.09 10.0348 292.868C9.88862 293.161 9.54762 293.355 9.20662 293.355Z" fill="#6F0000"/>
<path d="M61.9639 381.138C61.6229 381.138 61.3306 380.992 61.1358 380.651C60.8435 380.212 60.9896 379.579 61.4768 379.336C67.7609 375.585 71.999 369.106 74.1911 360.045C80.6701 333.301 67.6634 286.438 42.527 246.103C33.515 231.635 23.5773 218.969 13.0064 208.496C9.5964 205.086 6.42999 201.578 3.6533 197.974C3.3123 197.535 3.40973 196.951 3.79944 196.61C4.23787 196.269 4.82243 196.366 5.16343 196.756C7.89141 200.263 11.0091 203.722 14.3704 207.083C25.0387 217.654 35.0738 230.466 44.1833 245.08C56.3131 264.566 66.1533 286.584 71.9503 307.044C77.9421 328.381 79.4035 346.843 76.0909 360.483C73.7527 370.08 69.1736 376.949 62.451 380.992C62.3049 381.089 62.1588 381.138 61.9639 381.138Z" fill="#6F0000"/>
<path d="M402.572 283.71C402.377 283.71 402.182 283.661 401.987 283.515C390.832 275.136 382.063 266.124 375.828 256.771C364.819 240.16 361.701 222.282 366.572 203.722C371.59 184.48 384.012 169.184 393.511 159.733C393.901 159.343 394.485 159.343 394.875 159.733C395.265 160.123 395.265 160.707 394.875 161.097C385.522 170.401 373.392 185.405 368.472 204.209C363.747 222.233 366.767 239.527 377.484 255.7C383.574 264.907 392.196 273.724 403.156 281.956C403.595 282.297 403.692 282.882 403.351 283.32C403.156 283.613 402.864 283.71 402.572 283.71Z" fill="#6F0000"/>
<path d="M327.26 306.07C316.543 306.07 304.267 302.514 290.091 295.45C282.541 291.699 276.257 285.464 271.288 276.939C261.545 260.084 257.453 234.801 259.45 203.868C262.617 154.618 280.884 99.0842 307.19 58.8464C307.482 58.408 308.067 58.2619 308.554 58.5542C308.992 58.8464 309.139 59.431 308.846 59.9182C282.736 99.8636 264.565 155.057 261.399 203.965C259.45 234.509 263.445 259.402 272.993 275.965C277.718 284.148 283.759 290.14 290.968 293.696C309.187 302.757 323.948 305.875 336.077 303.196C347.915 300.614 357.658 292.332 365.842 278.011C369.398 271.824 372.613 264.565 375.73 255.894C383.038 235.435 389.224 208.155 395.898 167.381C395.995 166.845 396.483 166.504 397.018 166.553C397.554 166.65 397.895 167.138 397.847 167.673C391.173 208.544 384.937 235.922 377.582 256.528C374.464 265.296 371.151 272.652 367.595 278.936C357.17 297.155 344.213 306.07 327.26 306.07Z" fill="#6F0000"/>
<path d="M237.091 297.204C234.85 297.204 231.976 295.986 229.491 294.768C163.289 262.471 130.066 246.249 118.326 230.612C103.955 211.419 96.4535 172.447 92.6538 143.073C91.436 133.574 90.4617 124.318 89.731 115.696C68.6378 114.283 51.3444 114.721 40.4325 115.403C39.8966 115.452 39.4095 115.014 39.4095 114.478C39.3608 113.942 39.7992 113.455 40.335 113.455C51.2957 112.773 68.5404 112.334 89.5848 113.747C87.7337 91.2413 87.4414 73.4607 87.4901 67.5663C87.4901 67.0305 87.9286 66.592 88.4644 66.592C89.0003 66.592 89.4387 67.0305 89.4387 67.5663C89.3413 73.5094 89.6823 91.3387 91.5334 113.893C91.777 113.893 92.0692 113.942 92.3128 113.942C105.125 114.868 117.449 116.475 128.897 118.667C165.481 125.633 194.125 138.64 214.049 157.346C228.566 170.937 238.503 187.695 243.618 207.083C250 231.343 249.026 260.376 240.598 293.307C240.598 293.307 240.598 293.404 240.598 293.502C240.598 294.135 240.598 295.353 239.673 296.278C239.039 296.96 238.114 297.204 237.091 297.204ZM91.7283 115.842C92.459 124.318 93.3845 133.428 94.6024 142.829C98.3533 171.96 105.807 210.59 119.934 229.443C131.381 244.739 164.458 260.863 230.368 293.063C236.116 295.889 237.87 295.45 238.357 294.914C238.698 294.573 238.698 293.989 238.698 293.502C238.698 293.258 238.698 293.015 238.747 292.82C247.077 260.23 248.051 231.538 241.767 207.57C236.75 188.523 227.007 172.106 212.782 158.759C193.102 140.296 164.75 127.436 128.556 120.567C117.157 118.375 104.93 116.816 92.1667 115.891C92.0205 115.891 91.8744 115.891 91.7283 115.842Z" fill="#6F0000"/>
<path d="M192.809 177.757C174.542 177.757 155.494 171.522 142.537 156.713C127.776 139.809 127.728 120.47 127.728 119.642C127.922 92.2156 143.072 72.0967 157.248 55.3391C161.389 50.419 166.26 45.6937 171.668 41.2608C169.67 39.2148 167.04 37.5098 163.873 36.1458C163.386 35.9509 163.143 35.3664 163.386 34.8792C163.581 34.3921 164.166 34.1485 164.653 34.3921C168.111 35.9022 170.986 37.8021 173.226 40.0916C179.023 35.4638 183.164 32.9794 183.213 32.9794C184.187 32.3948 185.21 31.8102 186.184 31.2744C186.671 31.0308 187.256 31.177 187.5 31.6641C187.743 32.1512 187.597 32.7358 187.11 32.9794C186.136 33.5152 185.161 34.0998 184.187 34.6844C184.138 34.7331 180.046 37.1688 174.493 41.6018C175.029 42.2838 175.565 43.0145 176.003 43.7452C179.754 49.9318 178.585 55.7775 177.416 61.3796C176.393 66.4946 175.419 71.366 177.903 76.5784C183.992 89.4389 204.939 90.3644 225.155 91.2413C245.079 92.1181 263.883 92.9463 269.339 104.686C276.208 119.495 257.161 142.293 250.925 149.795L250.584 150.185C246.931 154.569 237.237 166.212 220.674 172.74C212.392 175.906 202.698 177.757 192.809 177.757ZM172.983 42.7222C167.624 47.1064 162.85 51.783 158.758 56.6056C144.826 73.071 129.92 92.8975 129.725 119.642C129.676 126.315 132.599 142.342 144.047 155.446C163.435 177.611 196.95 179.949 220.04 170.84C236.116 164.507 245.615 153.108 249.171 148.821L249.512 148.431C265.734 128.946 271.823 114.478 267.634 105.417C262.714 94.7487 244.446 93.9205 225.155 93.0924C204.355 92.1668 182.823 91.2413 176.198 77.3091C173.47 71.5121 174.542 66.1536 175.565 60.8925C176.685 55.3878 177.708 50.1754 174.396 44.622C173.908 43.94 173.47 43.3067 172.983 42.7222Z" fill="#6F0000"/>
<path d="M84.7623 158.418C82.6676 157.59 80.1832 158.369 78.9167 160.318L77.6988 163.241L69.2226 183.311L63.3282 197.243L53.147 221.308L61.9642 225.059L65.4716 216.826L73.5094 197.779C72.048 197.292 70.8789 196.22 70.1969 194.856C69.661 193.735 69.4661 192.469 69.8071 191.154C70.3917 188.572 72.73 186.818 75.2631 186.818C75.7015 186.818 76.0912 186.867 76.5297 186.964L77.8937 187.305L81.4011 179.024L86.5647 166.797L87.7339 164.02C88.2697 161.682 87.0032 159.295 84.7623 158.418Z" fill="#1F0D60"/>
<path d="M61.9641 225.059C59.772 227.494 57.6286 229.881 55.4365 232.268C53.7802 234.119 52.0752 235.97 50.4189 237.822C50.8087 235.386 51.1984 232.999 51.5881 230.612C52.0752 227.494 52.6111 224.425 53.0982 221.308C54.4622 220.82 55.7775 220.333 57.1415 219.895C57.2389 220.723 57.3363 221.551 57.4338 222.379C58.4567 220.918 59.431 219.456 60.454 217.946C60.9899 220.333 61.477 222.72 61.9641 225.059Z" fill="#D5E0EA"/>
<path d="M87.7826 164.069L86.6135 166.845L77.7476 163.289L78.9654 160.366C80.232 158.418 82.7164 157.638 84.8111 158.467C87.0032 159.295 88.2698 161.682 87.7826 164.069Z" fill="#00A1AB"/>
<path d="M86.6136 167.333C86.5649 167.333 86.5162 167.333 86.4187 167.284L77.5528 163.728C77.3092 163.63 77.1631 163.338 77.2605 163.094C77.3579 162.851 77.6502 162.705 77.8938 162.802L86.7597 166.358C87.0033 166.456 87.1494 166.748 87.052 166.992C86.9546 167.186 86.8084 167.333 86.6136 167.333Z" fill="#D5E0EA"/>
<path d="M85.7854 169.33C85.7367 169.33 85.688 169.33 85.5906 169.281L76.7247 165.725C76.4811 165.627 76.3349 165.335 76.4324 165.092C76.5298 164.848 76.8221 164.702 77.0657 164.799L85.9316 168.355C86.1752 168.453 86.3213 168.745 86.2239 168.989C86.1752 169.232 85.9803 169.33 85.7854 169.33Z" fill="#D5E0EA"/>
<path d="M55.4365 232.317C53.7802 234.168 52.0752 236.019 50.4189 237.87C50.8087 235.435 51.1984 233.048 51.5881 230.661L55.4365 232.317Z" fill="#1F0D60"/>
<path d="M277.962 209.129C279.034 203.624 280.106 198.12 281.129 192.615C277.475 193.541 272.555 194.125 268.317 191.689C256.236 184.772 264.42 161.341 254.677 152.231C248.442 146.385 234.071 145.655 200.751 162.364C197.487 172.35 196.659 181.752 196.22 186.818C195.733 192.518 192.421 231.245 213.757 243.326C217.654 245.518 221.941 246.639 226.325 246.834C226.179 250.292 225.887 258.135 225.497 266.417C225.059 277.036 224.572 288.435 224.377 292.527C241.476 281.323 258.525 270.119 275.624 258.963C275.624 258.817 275.624 258.622 275.673 258.476C275.916 254.141 276.16 249.854 276.403 245.518C276.793 238.991 277.134 232.463 277.524 225.935C277.719 222.574 277.914 219.213 278.108 215.852C278.108 214.829 278.06 213.854 277.962 212.88C277.962 212.783 277.962 212.734 277.962 212.636C278.011 212.295 278.06 212.003 278.108 211.711C278.108 210.834 278.06 209.957 277.962 209.129Z" fill="#FF5200"/>
<path d="M223.549 208.252H223.5L210.834 206.791C210.688 206.791 210.542 206.693 210.493 206.547C210.396 206.401 210.396 206.255 210.445 206.157L219.213 178.878C219.311 178.634 219.554 178.488 219.846 178.585C220.09 178.683 220.236 178.926 220.139 179.219L211.565 205.914L223.646 207.327C223.89 207.375 224.084 207.619 224.084 207.862C223.987 208.106 223.792 208.252 223.549 208.252Z" fill="black"/>
<path d="M253.746 167.895C253.809 166.497 248.914 165.142 242.813 164.868C236.712 164.593 231.715 165.504 231.652 166.902C231.589 168.299 236.484 169.654 242.585 169.929C248.686 170.203 253.683 169.292 253.746 167.895Z" fill="black"/>
<path d="M215.44 176.328C215.769 174.968 211.223 172.703 205.287 171.268C199.35 169.834 194.272 169.773 193.943 171.133C193.615 172.493 198.16 174.758 204.097 176.193C210.033 177.627 215.111 177.688 215.44 176.328Z" fill="black"/>
<path d="M236.311 205.768C244.732 205.768 251.559 198.941 251.559 190.52C251.559 182.099 244.732 175.273 236.311 175.273C227.89 175.273 221.064 182.099 221.064 190.52C221.064 198.941 227.89 205.768 236.311 205.768Z" fill="#00A1AB"/>
<path d="M280.252 189.643C279.813 189.887 279.424 190.131 279.034 190.423L248.149 184.675C247.906 184.626 247.711 184.382 247.759 184.09C247.808 183.847 248.052 183.652 248.344 183.7L280.252 189.643Z" fill="black"/>
<path d="M238.601 196.269C238.455 195.928 238.26 195.635 238.065 195.343C237.675 194.71 237.237 194.223 236.799 193.784C235.776 192.81 234.655 192.177 233.535 191.543C231.976 190.667 230.466 189.838 229.345 188.085C227.738 185.6 227.494 182.142 228.663 177.806C228.663 177.757 228.663 177.709 228.663 177.709C228.663 177.416 228.42 177.221 228.176 177.221C227.933 177.221 227.738 177.368 227.689 177.611C226.471 182.239 226.763 185.941 228.517 188.669C229.784 190.618 231.44 191.592 233.096 192.469C234.704 193.346 236.165 194.174 237.286 195.976C238.796 198.363 239.039 201.578 238.065 205.573C238.065 205.622 238.065 205.67 238.065 205.67C238.065 205.914 238.309 206.158 238.552 206.158C238.796 206.158 238.991 206.011 239.039 205.768C239.916 201.919 239.77 198.802 238.601 196.269Z" fill="white"/>
<path d="M198.266 204.209C206.687 204.209 213.513 197.382 213.513 188.961C213.513 180.541 206.687 173.714 198.266 173.714C189.845 173.714 183.019 180.541 183.019 188.961C183.019 197.382 189.845 204.209 198.266 204.209Z" fill="#00A1AB"/>
<path d="M201.092 195.343C200.945 195.002 200.751 194.71 200.556 194.369C200.166 193.784 199.728 193.297 199.289 192.907C198.023 191.787 196.464 191.154 194.954 190.569C192.956 189.79 191.105 189.01 189.839 187.11C188.28 184.723 188.231 181.265 189.741 176.832C189.839 176.588 189.693 176.296 189.449 176.198C189.205 176.101 188.913 176.247 188.816 176.491C187.257 181.216 187.306 184.967 189.059 187.597C190.472 189.79 192.567 190.618 194.661 191.446C196.659 192.225 198.51 193.005 199.825 194.905C201.238 196.999 201.53 200.019 200.556 203.819C200.507 204.063 200.653 204.355 200.897 204.404C200.945 204.404 200.994 204.404 200.994 204.404C201.238 204.404 201.433 204.258 201.481 204.014C202.309 200.507 202.212 197.584 201.092 195.343Z" fill="white"/>
<path d="M225.497 185.454C225.4 185.454 225.253 185.405 225.156 185.308C223.938 184.187 221.454 182.239 218.239 182.288C215.462 182.336 212.588 183.895 211.662 184.431C211.419 184.577 211.224 184.675 211.126 184.772C210.883 184.918 210.591 184.821 210.444 184.626C210.298 184.382 210.396 184.09 210.591 183.944C210.737 183.846 210.932 183.749 211.175 183.603C212.149 183.067 215.17 181.362 218.19 181.313C221.697 181.265 224.474 183.359 225.789 184.577C225.984 184.772 225.984 185.064 225.789 185.259C225.741 185.405 225.643 185.454 225.497 185.454Z" fill="black"/>
<path d="M242.596 193.589C242.596 195.197 241.281 196.512 239.673 196.512C239.283 196.512 238.894 196.415 238.601 196.317C238.455 195.976 238.26 195.684 238.065 195.392C237.676 194.758 237.237 194.271 236.799 193.833C236.799 193.784 236.799 193.735 236.799 193.687C236.799 192.079 238.114 190.764 239.722 190.764C241.281 190.666 242.596 191.982 242.596 193.589Z" fill="black"/>
<path d="M205.086 192.615C205.086 194.223 203.771 195.538 202.163 195.538C201.773 195.538 201.432 195.489 201.091 195.343C200.945 195.002 200.75 194.71 200.556 194.369C200.166 193.784 199.727 193.297 199.289 192.907C199.289 192.81 199.289 192.712 199.289 192.615C199.289 191.007 200.604 189.692 202.212 189.692C203.771 189.692 205.086 191.007 205.086 192.615Z" fill="black"/>
<path d="M216.29 228.956C216.047 228.956 215.803 228.761 215.803 228.468C215.803 228.176 215.998 227.981 216.29 227.981C220.09 227.933 223.89 227.007 227.251 225.351C229.735 224.133 231.976 222.525 233.925 220.577C234.12 220.382 234.412 220.382 234.607 220.577C234.802 220.772 234.802 221.064 234.607 221.259C232.561 223.305 230.223 224.961 227.641 226.228C224.182 227.981 220.236 228.907 216.29 228.956Z" fill="black"/>
<path d="M322.925 111.068C323.169 93.1898 308.895 78.4782 291.017 78.2346C273.139 77.9911 258.428 92.2643 258.184 110.142C258.135 115.111 259.158 119.836 261.107 124.026C252.339 121.931 243.034 121.444 234.314 123.003C229.394 123.88 216.777 126.364 208.009 136.643C205.817 139.224 201.189 144.778 200.215 153.205C199.776 157.054 200.215 160.318 200.702 162.461C200.75 162.461 200.799 162.412 200.848 162.364C234.168 145.655 248.539 146.385 254.774 152.231C264.517 161.341 256.333 184.772 268.414 191.689C272.604 194.125 277.572 193.541 281.226 192.615C280.154 198.12 277.767 222.574 277.621 225.935C277.231 232.463 276.89 238.991 276.501 245.518C281.177 242.255 286.828 237.481 291.992 230.758C304.56 214.39 306.021 197.243 306.46 191.251C308.116 168.014 298.665 150.77 294.768 144.486C294.427 143.95 294.038 143.414 293.599 142.878C309.821 141.368 322.681 127.777 322.925 111.068Z" fill="black"/>
<path d="M298.081 150.77C291.261 148.285 283.028 144.583 274.211 139.078C265.15 133.428 258.038 127.436 252.728 122.272C254.53 119.154 256.284 116.085 258.087 112.968C262.812 118.034 270.314 124.951 281.031 130.748C290.189 135.717 298.665 138.201 304.901 139.517C302.611 143.316 300.322 147.067 298.081 150.77Z" fill="#00A1AB"/>
<path d="M226.374 247.321C226.13 247.321 225.936 247.175 225.887 246.931C225.838 246.687 226.033 246.395 226.277 246.395C229.394 245.859 232.561 245.177 235.63 244.349C239.819 243.229 244.009 241.767 248.003 240.111C248.247 240.014 248.539 240.111 248.636 240.355C248.734 240.598 248.636 240.89 248.393 240.988C244.349 242.693 240.16 244.154 235.922 245.275C232.853 246.103 229.638 246.785 226.471 247.321C226.423 247.321 226.423 247.321 226.374 247.321Z" fill="black"/>
<path d="M292.722 187.792C291.115 187.451 289.556 187.305 287.997 187.403C285.22 187.549 282.59 188.328 280.252 189.644C279.813 189.887 279.423 190.131 279.034 190.423C278.693 190.667 278.352 190.91 278.011 191.154C274.698 193.638 272.262 197.34 271.337 201.676C269.242 211.419 275.478 221.015 285.22 223.11C294.963 225.205 304.56 218.969 306.654 209.227C308.7 199.484 302.514 189.887 292.722 187.792Z" fill="#FF5200"/>
<path d="M281.323 212.198C281.129 212.198 280.982 212.101 280.885 211.954C280.788 211.711 280.836 211.419 281.08 211.321C282.687 210.493 283.759 208.837 283.857 207.034C283.954 205.183 283.028 203.381 281.421 202.407C281.275 202.309 281.177 202.163 281.177 201.968C281.177 201.773 281.275 201.627 281.421 201.53L297.886 192.128C298.13 191.982 298.422 192.079 298.568 192.323C298.714 192.566 298.617 192.859 298.373 193.005L282.59 202.066C284.1 203.283 284.977 205.183 284.831 207.132C284.733 209.275 283.418 211.272 281.518 212.247C281.47 212.149 281.421 212.198 281.323 212.198Z" fill="black"/>
<path d="M281.323 215.705L266.076 224.718L283.759 233.681L281.323 215.705Z" fill="#00A1AB"/>
<path d="M390.345 315.959C388.348 320.587 386.107 325.214 383.72 329.696C373.977 348.061 361.506 364.77 346.6 379.384C331.694 393.998 314.741 406.226 296.23 415.627C295.743 415.871 295.548 416.456 295.791 416.943C293.307 418.209 290.822 419.378 288.289 420.548C287.705 420.84 287.072 421.083 286.438 421.376C261.399 432.385 233.681 438.523 204.599 438.523C170.889 438.523 139.127 430.339 111.117 415.822C111.36 415.335 111.165 414.751 110.727 414.507C93.0926 405.251 76.9195 393.511 62.6951 379.482C59.6748 376.559 56.7033 373.441 53.8291 370.226C53.7804 370.129 53.683 370.08 53.6343 369.982C71.8046 320.44 89.9749 270.947 108.145 221.405C119.934 225.253 131.771 229.102 143.56 232.999C143.171 245.616 142.635 258.33 142.05 271.239C140.978 293.453 139.614 315.228 138.007 336.565C140.199 333.203 172.204 285.659 225.595 266.368C225.156 276.988 224.669 288.387 224.474 292.479C241.573 281.274 258.623 270.07 275.721 258.915C275.721 258.769 275.721 258.574 275.77 258.428C332.619 260.571 373.636 298.909 390.345 315.959Z" fill="#142850"/>
<path d="M224.426 293.014C224.328 293.014 224.279 293.014 224.182 292.966C224.036 292.868 223.938 292.722 223.938 292.527L224.669 275.721C224.669 275.429 224.913 275.234 225.156 275.234C225.449 275.234 225.643 275.477 225.643 275.721L224.961 291.602L270.85 261.545C271.094 261.399 271.386 261.448 271.532 261.691C271.678 261.935 271.629 262.227 271.386 262.373L224.718 292.966C224.62 292.966 224.523 293.014 224.426 293.014Z" fill="#D5E0EA"/>
<path d="M259.11 341.875V461.906C259.11 464.098 257.453 465.949 255.261 466.193C227.738 469.164 200.166 472.184 172.642 475.156C171.814 475.253 170.986 475.107 170.255 474.718C150.283 464.78 130.31 454.794 110.337 444.856C108.73 444.076 107.804 442.371 107.95 440.618C108.632 432.97 109.314 425.322 109.996 417.673C112.675 387.666 115.403 357.609 118.083 327.601C118.375 324.289 122.175 322.535 124.854 324.435C124.903 324.435 124.903 324.484 124.951 324.484C138.201 333.837 168.258 355.758 175.857 361.311C176.978 362.14 178.439 362.334 179.755 361.945L250.487 338.659L253.361 337.734C256.235 336.857 259.11 338.952 259.11 341.875Z" fill="#1F0D60"/>
<path d="M160.025 470.187H159.977C159.733 470.138 159.538 469.943 159.538 469.651L171.229 358.242C171.278 357.999 171.473 357.804 171.765 357.804C172.009 357.853 172.204 358.048 172.204 358.34L160.512 469.749C160.464 469.992 160.269 470.187 160.025 470.187Z" fill="#D5E0EA"/>
<path d="M193.784 473.402C193.54 473.402 193.297 473.207 193.297 472.915L189.351 358.73C189.351 358.437 189.546 358.242 189.838 358.242C190.082 358.194 190.325 358.437 190.325 358.73L194.271 472.915C194.271 473.159 194.076 473.402 193.784 473.402Z" fill="#D5E0EA"/>
<path d="M146.872 385.327C145.119 390.881 143.365 396.483 141.563 402.036C140.247 397.311 138.932 392.537 137.617 387.812C134.012 390.345 130.358 392.878 126.753 395.411C128.264 390.929 129.774 386.448 131.284 381.917C127.143 381.041 123.003 380.115 118.862 379.238C123.051 377.436 127.241 375.633 131.479 373.831C129.53 369.3 127.533 364.819 125.584 360.288C129.628 363.163 133.671 366.037 137.665 368.911C139.565 364.429 141.465 359.899 143.365 355.417C144.193 360.24 145.021 365.111 145.849 369.934C149.893 369.203 153.887 368.521 157.93 367.79C155.3 371.346 152.621 374.903 149.99 378.507C153.351 381.382 156.713 384.256 160.074 387.13C155.641 386.545 151.257 385.961 146.872 385.327Z" fill="#FF5200"/>
<path d="M154.569 422.106C155.544 432.336 147.896 441.543 137.666 442.469C127.436 443.443 118.229 435.795 117.303 425.565C129.725 424.445 142.147 423.276 154.569 422.106Z" fill="#00A1AB"/>
<path d="M206.645 419.232C216.582 420.742 226.471 422.253 236.409 423.763C238.552 433.7 240.696 443.589 242.839 453.527C233.242 451.627 223.597 449.727 214 447.827C211.565 438.328 209.129 428.78 206.645 419.232Z" fill="#D5E0EA"/>
<path d="M240.647 376.949C237.87 382.794 232.171 386.399 226.52 385.279C220.869 384.158 216.972 378.654 216.68 372.175C214.634 371.785 212.588 371.346 210.493 370.957C208.496 380.894 215.072 390.735 225.01 392.732C234.947 394.729 244.788 388.153 246.785 378.215C244.788 377.777 242.742 377.387 240.647 376.949Z" fill="#003FFF"/>
<path d="M250.585 338.708L177.757 362.675C177.757 362.675 140.296 335.347 125.049 324.532L135.474 320.294L177.903 354.394L239.673 330.329L250.585 338.708Z" fill="#D5E0EA"/>
<path d="M137.909 210.103C131.674 196.951 120.567 186.818 118.326 184.821C113.065 180.096 108.096 176.783 104.443 174.591C102.932 173.032 100.497 172.399 98.2559 173.178L81.4009 179.073L77.8935 187.354L76.5295 187.013C76.0911 186.915 75.6527 186.867 75.263 186.867C72.7298 186.867 70.3916 188.62 69.807 191.202C69.7583 191.397 69.7583 191.543 69.7096 191.738C69.7096 191.787 69.7096 191.836 69.7096 191.836C69.7096 191.982 69.6609 192.079 69.6609 192.225C69.6609 192.274 69.6609 192.323 69.6609 192.371C69.6609 192.469 69.6609 192.615 69.6609 192.712C69.6609 192.761 69.6609 192.859 69.6609 192.907C69.6609 193.005 69.6609 193.102 69.7096 193.2C69.7096 193.297 69.7583 193.346 69.7583 193.443C69.7583 193.541 69.807 193.589 69.807 193.638C69.807 193.735 69.8557 193.833 69.8557 193.93C69.8557 193.979 69.9044 194.028 69.9044 194.076C69.9531 194.174 69.9531 194.32 70.0018 194.417V194.466C70.5864 195.976 71.853 197.243 73.4605 197.779L65.374 216.826C67.0303 216.923 68.6866 216.29 69.8557 214.975L78.3806 205.427L74.3374 214C73.0221 216.777 74.24 220.138 77.0167 221.454C79.7934 222.769 83.1546 221.551 84.4699 218.774L87.8312 211.565L86.3697 216.046C85.3955 218.969 87.003 222.136 89.9259 223.11C92.8487 224.084 96.0151 222.477 96.9894 219.554L100.01 210.493C102.689 216.339 106.489 220.041 108.047 221.454C119.836 225.302 131.674 229.151 143.462 233.048C143.17 226.033 141.757 218.092 137.909 210.103Z" fill="#FF5200"/>
<path d="M118.813 204.745C118.716 204.745 118.57 204.696 118.472 204.599C113.163 199.679 107.122 195.733 100.546 192.859C92.9462 189.546 84.8597 187.695 76.5296 187.451C76.2373 187.451 76.0425 187.208 76.0425 186.964C76.0425 186.672 76.2861 186.477 76.5296 186.477C85.0058 186.721 93.1898 188.572 100.935 191.933C107.609 194.856 113.747 198.85 119.154 203.868C119.349 204.063 119.349 204.355 119.203 204.55C119.057 204.696 118.959 204.745 118.813 204.745Z" fill="black"/>
<path d="M87.9289 212.052C87.8802 212.052 87.7827 212.052 87.734 212.003C87.4905 211.906 87.393 211.613 87.4905 211.37L90.9004 204.063C90.9979 203.819 91.2901 203.722 91.5337 203.819C91.7773 203.917 91.8747 204.209 91.7773 204.452L88.3673 211.76C88.2699 211.954 88.1237 212.052 87.9289 212.052Z" fill="black"/>
<path d="M56.557 187.744L69.2226 183.311L63.3283 197.243L60.3567 198.266C57.3364 199.289 54.0239 197.827 53.0009 194.905C51.9292 192.03 53.5367 188.815 56.557 187.744Z" fill="#FF5200"/>
<path d="M300.712 411.146C300.663 411.438 300.322 413.338 299.689 414.897C296.912 421.717 273.724 429.755 263.835 431.995C257.551 433.408 249.124 435.064 239.04 436.282C236.019 436.916 233.048 434.967 232.415 431.947C232.317 431.557 232.317 431.167 232.317 430.778C232.317 430.339 232.366 429.949 232.463 429.56C229.735 429.755 227.154 427.903 226.618 425.127C225.984 422.106 227.933 419.135 230.953 418.502L236.068 417.43L227.884 418.648C227.592 418.696 227.348 418.696 227.056 418.696C224.328 418.696 221.941 416.699 221.503 413.923C221.016 410.854 223.159 407.979 226.179 407.541L259.207 402.572V396.775H228.761C225.692 396.775 223.159 394.242 223.159 391.173C223.159 388.104 225.692 385.571 228.761 385.571H259.207C259.207 381.187 259.207 376.851 259.207 372.467C265.15 372.71 273.334 373.977 281.616 378.751C292.187 384.84 298.373 394.388 300.127 400.672C301.54 406.274 300.712 411.146 300.712 411.146Z" fill="#FF5200"/>
<path d="M230.856 418.989C230.612 418.989 230.418 418.843 230.369 418.599C230.32 418.355 230.515 418.063 230.759 418.014L260.766 412.315C261.059 412.266 261.302 412.461 261.351 412.705C261.4 412.948 261.205 413.24 260.961 413.289L230.953 418.989C230.905 418.989 230.856 418.989 230.856 418.989Z" fill="black"/>
<path d="M232.366 430.047C232.123 430.047 231.928 429.901 231.879 429.657C231.83 429.414 231.976 429.121 232.22 429.073L263.299 421.619C263.543 421.571 263.835 421.717 263.884 421.96C263.933 422.204 263.787 422.496 263.543 422.545L232.464 429.998C232.464 430.047 232.415 430.047 232.366 430.047Z" fill="black"/>
<path d="M275.088 386.058H259.061C258.769 386.058 258.574 385.863 258.574 385.571C258.574 385.279 258.769 385.084 259.061 385.084H275.088C275.381 385.084 275.575 385.279 275.575 385.571C275.575 385.863 275.381 386.058 275.088 386.058Z" fill="black"/>
</g>
<defs>
<clipPath id="clip0">
<rect width="500" height="475.253" fill="white"/>
</clipPath>
</defs>
</svg>
