<svg width="40" height="40" viewBox="0 0 40 40" fill="none" xmlns="http://www.w3.org/2000/svg">
<path d="M39 20C39 30.4934 30.4934 39 20 39C9.50659 39 1 30.4934 1 20C1 9.50659 9.50659 1 20 1C30.4934 1 39 9.50659 39 20Z" stroke="#BBBBBB" stroke-width="2"/>
<path fill-rule="evenodd" clip-rule="evenodd" d="M18.0885 26C22.9941 26 25.6772 21.7675 25.6772 18.0975C25.6772 17.977 25.6772 17.8572 25.6694 17.7381C26.1914 17.3455 26.6418 16.8581 27 16.3004C26.5138 16.5251 25.9971 16.6727 25.4686 16.7377C26.025 16.3904 26.4417 15.8449 26.6412 15.2012C26.1173 15.5247 25.5447 15.7528 24.9473 15.8753C23.9372 14.7571 22.2479 14.703 21.1734 15.7548C20.4811 16.4331 20.1867 17.4443 20.4019 18.4089C18.2575 18.2965 16.2594 17.2419 14.9048 15.5071C14.197 16.7762 14.559 18.3994 15.7309 19.2143C15.3065 19.2015 14.8911 19.0824 14.52 18.8671V18.9023C14.5206 20.2242 15.4157 21.3627 16.6598 21.6247C16.2672 21.7364 15.8551 21.7526 15.456 21.6721C15.805 22.8038 16.8067 23.5788 17.9474 23.6012C17.003 24.3742 15.8363 24.7938 14.635 24.7925C14.4232 24.7918 14.2113 24.7789 14 24.7525C15.22 25.5675 16.639 26 18.0885 25.998" fill="white"/>
</svg>
