<svg width="40" height="40" viewBox="0 0 40 40" fill="none" xmlns="http://www.w3.org/2000/svg">
<path d="M39 20C39 30.4934 30.4934 39 20 39C9.50659 39 1 30.4934 1 20C1 9.50659 9.50659 1 20 1C30.4934 1 39 9.50659 39 20Z" stroke="#BBBBBB" stroke-width="2"/>
<path fill-rule="evenodd" clip-rule="evenodd" d="M23.0841 16.9819H26.6453V15.9619H23.0841V16.9819ZM24.8395 19.0298C24.0451 19.0298 23.4418 19.5221 23.3837 20.4315H26.2337C26.0405 19.3522 25.5611 19.0298 24.8395 19.0298ZM24.9508 23.2478C25.6843 23.2478 26.2225 22.7844 26.3324 22.3941H27.875C27.4341 23.8059 26.5235 24.5989 24.8885 24.5989C22.802 24.5989 21.6311 23.1148 21.6311 21.1457C21.6311 16.5084 28.3223 16.3422 27.9863 21.5787H23.3837C23.4285 22.642 23.8673 23.2478 24.9508 23.2478ZM18.009 23.044C18.851 23.044 19.4404 22.7201 19.4404 21.8461C19.4404 20.9397 18.9196 20.5464 18.0454 20.5464H15.9359V23.044H18.009ZM17.8977 19.1831C18.5984 19.1831 19.082 18.857 19.082 18.0995C19.082 17.3014 18.5193 17.0549 17.7501 17.0549H15.9359V19.1831H17.8977ZM18.1448 15.5C19.8043 15.5 20.9578 16.0487 20.9578 17.7554C20.9578 18.6004 20.6183 19.2301 19.7609 19.6544C20.8584 19.9804 21.3777 20.8363 21.3777 21.9611C21.3777 23.7466 19.9618 24.5989 18.268 24.5989H13.9985V15.5H18.1448Z" fill="white"/>
</svg>
